<svg id="레이어_1" data-name="레이어 1" xmlns="http://www.w3.org/2000/svg" viewBox="0 0 189.65 68.91"><defs><style>.cls-1{fill:#ed1b23;}.cls-2{fill:#007fb2;}.cls-3{fill:#221e1f;}.cls-4{font-size:15.05px;fill:#6b6a6a;font-family:NotoSansCJKkr-Regular-KSCpc-EUC-H, Noto Sans CJK KR;letter-spacing:-0.04em;}</style></defs><path class="cls-1" d="M390.68,422a2.13,2.13,0,0,1-2.19,2.07H365.06a2.13,2.13,0,0,1-2.19-2.07h0a2.13,2.13,0,0,1,2.19-2.07h23.43a2.13,2.13,0,0,1,2.19,2.07Z" transform="translate(-202.96 -376.16)"/><path class="cls-1" d="M269.76,401.64H286.1s3.89-.33,3.89,2.81v10.39s.75,8.55-11.36,8.22h-7.78s-3.51,0-3.36-2.49c0,0-.2-2.16,2.81-2.16h8.55s6.81.55,6.81-3.14v-4.11s-.86,1-5,1h-8.77s-3.78.32-3.78-2.27a2.18,2.18,0,0,1,2.49-2.06h11.68a5.37,5.37,0,0,1,3.46,1.19v-1.73s.22-1.51-2-1.51H271.05s-3.78.43-3.78-2.16C267.27,403.59,267,401.64,269.76,401.64Z" transform="translate(-202.96 -376.16)"/><path class="cls-1" d="M324.5,401.75H313.14a2,2,0,0,0-2-2,2,2,0,0,0-2.19,2.15h-7s-2.55-.22-2.55,1.94c0,0-.14,2.17,2.67,2.17h4.58s1.77-.27,1.3,1.18c0,0-.42,3.47-6.71,6a3.8,3.8,0,0,0-2.21,3.67V419a4.21,4.21,0,0,0,4.59,4.21h16.67s6,.33,6-1.95V403.59A1.84,1.84,0,0,0,324.5,401.75Zm-2.21,17H304.92s-2.16.2-2.14-1.07c0,0-.21-.62,1.38-1.52,0,0,4.13-2.67,5.85-5,0,0,.93-1.41,1.83-.11,0,0,4.82,6.38,10.45,6.17Zm.16-5.19s-7.9-.11-8.76-7.68h7.57a1.17,1.17,0,0,1,1.19,1.29Z" transform="translate(-202.96 -376.16)"/><path class="cls-1" d="M295.87,421a2.11,2.11,0,0,1-2.06,2.16h0a2.12,2.12,0,0,1-2.06-2.16V404.06a2.12,2.12,0,0,1,2.06-2.17h0a2.11,2.11,0,0,1,2.06,2.17Z" transform="translate(-202.96 -376.16)"/><path class="cls-1" d="M356.88,420.8a2.11,2.11,0,0,1-2.06,2.16h0a2.1,2.1,0,0,1-2.05-2.16V403.87a2.1,2.1,0,0,1,2.05-2.15h0a2.1,2.1,0,0,1,2.06,2.15Z" transform="translate(-202.96 -376.16)"/><path class="cls-1" d="M339.76,402.73a10.37,10.37,0,1,0,10.36,10.37A10.37,10.37,0,0,0,339.76,402.73Zm0,16.91a6.54,6.54,0,1,1,6.54-6.54A6.54,6.54,0,0,1,339.76,419.64Z" transform="translate(-202.96 -376.16)"/><path class="cls-1" d="M390.68,404.17a2.13,2.13,0,0,1-2.19,2.07H365.06a2.13,2.13,0,0,1-2.19-2.07h0a2.13,2.13,0,0,1,2.19-2.07h23.43a2.13,2.13,0,0,1,2.19,2.07Z" transform="translate(-202.96 -376.16)"/><path class="cls-1" d="M371,411.84h17.48a2.13,2.13,0,0,0,2.19-2.07h0a2.13,2.13,0,0,0-2.19-2.07H368.14s-5.37-.55-5.37,5.28c0,6.66,7.11,6.1,7.11,6.1h18.61a2.13,2.13,0,0,0,2.19-2.06h0a2.14,2.14,0,0,0-2.19-2.08H371s-4.39.38-4.39-1.61C366.62,413.33,366.38,411.46,371,411.84Z" transform="translate(-202.96 -376.16)"/><path class="cls-1" d="M361.68,412.92a1.6,1.6,0,0,1-1.59,1.6H359a1.61,1.61,0,0,1-1.6-1.6v-.53a1.6,1.6,0,0,1,1.6-1.6h1.09a1.59,1.59,0,0,1,1.59,1.6Z" transform="translate(-202.96 -376.16)"/><path class="cls-2" d="M242.11,396.71A14.12,14.12,0,0,0,228,410.83h0V425h14.13a14.13,14.13,0,0,0,0-28.25Z" transform="translate(-202.96 -376.16)"/><path class="cls-2" d="M214.26,402.36a11.29,11.29,0,0,1,11.29,11.29h0V425H214.26a11.3,11.3,0,1,1,0-22.6Z" transform="translate(-202.96 -376.16)"/><path class="cls-2" d="M208,436.31a8.77,8.77,0,0,1,8.76-8.77h8.76v8.77a8.76,8.76,0,1,1-17.52,0Z" transform="translate(-202.96 -376.16)"/><path class="cls-3" d="M277.09,441.91h-2.84a30.75,30.75,0,0,0-1.83-2.6c-.67-.87-1.36-1.71-2.09-2.51h-.19v3.63a1.23,1.23,0,0,0,.08.44.75.75,0,0,0,.33.3,2.22,2.22,0,0,0,.41.13,2.36,2.36,0,0,0,.52.08v.53h-4.22v-.53l.49,0a1.42,1.42,0,0,0,.44-.09.57.57,0,0,0,.32-.29,1,1,0,0,0,.1-.45V433a.94.94,0,0,0-.09-.43.63.63,0,0,0-.33-.31,3,3,0,0,0-.46-.17,2.27,2.27,0,0,0-.47-.09v-.52h4.22V432a4.2,4.2,0,0,0-.5.07l-.43.11a.52.52,0,0,0-.33.3,1.06,1.06,0,0,0-.08.45v3.61h.14q.64-.56,1.26-1.17a15.63,15.63,0,0,0,1.13-1.21,10.27,10.27,0,0,0,.82-1.08,1.29,1.29,0,0,0,.26-.7.21.21,0,0,0-.13-.19,2.09,2.09,0,0,0-.3-.11L273,432l-.26,0v-.52h3.8V432h-.09l-.17,0-.2,0-.26.06a2.84,2.84,0,0,0-.51.18,1.54,1.54,0,0,0-.45.33l-1.53,1.78c-.53.61-1.06,1.18-1.58,1.68q1.1,1.27,1.8,2.19l1.51,1.95a3.43,3.43,0,0,0,.61.64,4.71,4.71,0,0,0,.53.35,1.37,1.37,0,0,0,.47.15,3.06,3.06,0,0,0,.46.06Z" transform="translate(-202.96 -376.16)"/><path class="cls-3" d="M280.81,441.91h-3.42v-.5l.35,0a1.25,1.25,0,0,0,.3-.05.54.54,0,0,0,.29-.24.78.78,0,0,0,.1-.43v-4.47a.88.88,0,0,0-.1-.43.92.92,0,0,0-.29-.33,1.22,1.22,0,0,0-.39-.15,3.08,3.08,0,0,0-.47-.08v-.49l2.5-.16.1.1v5.92a.89.89,0,0,0,.09.43.6.6,0,0,0,.31.25,1.82,1.82,0,0,0,.3.11,1.63,1.63,0,0,0,.33.05Zm-.88-9.25a1.16,1.16,0,0,1-.27.74.86.86,0,0,1-.66.31.82.82,0,0,1-.63-.3,1,1,0,0,1-.27-.68,1,1,0,0,1,.27-.71.82.82,0,0,1,.63-.3.91.91,0,0,1,.67.28A1,1,0,0,1,279.93,432.66Z" transform="translate(-202.96 -376.16)"/><path class="cls-3" d="M286,441.59c-.31.13-.6.24-.88.33a3.33,3.33,0,0,1-1,.14,1.5,1.5,0,0,1-1.25-.47,2.05,2.05,0,0,1-.36-1.3v-4.92h-1.28v-.71h1.31v-2.27h1.3v2.27h2v.71h-2v4.08a7.59,7.59,0,0,0,0,.76,1.48,1.48,0,0,0,.15.54.73.73,0,0,0,.35.32,1.29,1.29,0,0,0,.61.12l.52,0a2.57,2.57,0,0,0,.49-.08Z" transform="translate(-202.96 -376.16)"/><path class="cls-3" d="M290,442.1a3,3,0,0,1-2.4-1,4.27,4.27,0,0,1-.87-2.81,4.17,4.17,0,0,1,.24-1.43,4,4,0,0,1,.67-1.21,3.17,3.17,0,0,1,1.07-.84,2.93,2.93,0,0,1,1.39-.32,2.68,2.68,0,0,1,1.69.51,1.68,1.68,0,0,1,.65,1.39,1.3,1.3,0,0,1-.17.66.64.64,0,0,1-.57.28.91.91,0,0,1-.66-.22.68.68,0,0,1-.23-.49,3.16,3.16,0,0,1,.08-.68,3.89,3.89,0,0,0,.1-.51.62.62,0,0,0-.38-.31,1.93,1.93,0,0,0-.55-.07,1.38,1.38,0,0,0-.65.15,1.6,1.6,0,0,0-.6.55,3,3,0,0,0-.43,1,6,6,0,0,0-.17,1.5,3.89,3.89,0,0,0,.59,2.23,1.81,1.81,0,0,0,1.56.87,1.9,1.9,0,0,0,1.16-.35,3.38,3.38,0,0,0,.87-1.05l.46.31a3.71,3.71,0,0,1-1.25,1.38A2.86,2.86,0,0,1,290,442.1Z" transform="translate(-202.96 -376.16)"/><path class="cls-3" d="M300.31,441.91h-3.47v-.5l.36,0a1.35,1.35,0,0,0,.33-.05.6.6,0,0,0,.3-.24.89.89,0,0,0,.09-.43v-3.73a1.78,1.78,0,0,0-.35-1.19,1.07,1.07,0,0,0-.85-.42,1.92,1.92,0,0,0-.69.12,2.57,2.57,0,0,0-.57.3,1.39,1.39,0,0,0-.36.37c-.08.12-.15.22-.2.31v4.17a.73.73,0,0,0,.1.41.6.6,0,0,0,.29.25,1.17,1.17,0,0,0,.33.11,2,2,0,0,0,.36.05v.5h-3.46v-.5l.33,0a1.54,1.54,0,0,0,.3-.05.53.53,0,0,0,.3-.24.78.78,0,0,0,.1-.43v-8.45a1.13,1.13,0,0,0-.11-.5.88.88,0,0,0-.29-.38.92.92,0,0,0-.45-.13l-.53-.06v-.49l2.62-.17.11.12v5.08h0l.42-.43a4.17,4.17,0,0,1,.51-.39,2.71,2.71,0,0,1,.64-.3,2.65,2.65,0,0,1,.83-.11,1.76,1.76,0,0,1,1.44.61,2.71,2.71,0,0,1,.5,1.77v3.78a.86.86,0,0,0,.09.41.63.63,0,0,0,.3.25l.3.1.35,0Z" transform="translate(-202.96 -376.16)"/><path class="cls-3" d="M303.32,437.44a3.22,3.22,0,0,1,.54-1.79,1.51,1.51,0,0,1,1.24-.64,1.19,1.19,0,0,1,.73.21,1.56,1.56,0,0,1,.46.55,3.36,3.36,0,0,1,.21.78,7.25,7.25,0,0,1,.06.89Zm4.34,2.44a2.94,2.94,0,0,1-.88,1.11,1.92,1.92,0,0,1-1.1.31,2.09,2.09,0,0,1-1.07-.25,2,2,0,0,1-.73-.67,3.09,3.09,0,0,1-.42-1,5.76,5.76,0,0,1-.14-1.3H308v-.49a4.39,4.39,0,0,0-.16-1.22,2.69,2.69,0,0,0-.49-1,2.39,2.39,0,0,0-.89-.69,3.31,3.31,0,0,0-1.32-.24,2.76,2.76,0,0,0-1.36.32,3.05,3.05,0,0,0-1,.84,3.82,3.82,0,0,0-.65,1.23,4.62,4.62,0,0,0-.21,1.38,5.23,5.23,0,0,0,.2,1.5,3.9,3.9,0,0,0,.62,1.24,2.91,2.91,0,0,0,1.06.83,3.33,3.33,0,0,0,1.49.31,2.92,2.92,0,0,0,1.71-.51,3.59,3.59,0,0,0,1.19-1.39Z" transform="translate(-202.96 -376.16)"/><path class="cls-3" d="M316.78,441.91h-3.47v-.5l.37,0a1.26,1.26,0,0,0,.32-.05.53.53,0,0,0,.3-.24.88.88,0,0,0,.1-.43v-3.73a1.78,1.78,0,0,0-.36-1.19,1.05,1.05,0,0,0-.84-.42,1.94,1.94,0,0,0-.7.12,2.42,2.42,0,0,0-.55.3,1.59,1.59,0,0,0-.37.36,2.21,2.21,0,0,0-.2.32v4.17a.83.83,0,0,0,.09.41.68.68,0,0,0,.3.25,1.28,1.28,0,0,0,.33.11,2,2,0,0,0,.36.05v.5H309v-.5c.11,0,.23,0,.34,0a1.34,1.34,0,0,0,.31-.05.54.54,0,0,0,.29-.24.88.88,0,0,0,.1-.43v-4.47a1,1,0,0,0-.11-.46.8.8,0,0,0-.29-.34.83.83,0,0,0-.32-.13,2.4,2.4,0,0,0-.4-.06v-.49l2.37-.16.1.1v1h0c.11-.11.25-.26.43-.42a3.17,3.17,0,0,1,.48-.4,2.38,2.38,0,0,1,.62-.3,2.63,2.63,0,0,1,.82-.11,1.74,1.74,0,0,1,1.5.65,2.77,2.77,0,0,1,.48,1.73v3.78a.86.86,0,0,0,.09.41.63.63,0,0,0,.3.25,1.5,1.5,0,0,0,.3.1,2.27,2.27,0,0,0,.35,0Z" transform="translate(-202.96 -376.16)"/><path class="cls-3" d="M320.35,438.9h-3.43l.49-1.16h3.43Z" transform="translate(-202.96 -376.16)"/><path class="cls-3" d="M323.16,437.63l1.51-4.08,1.55,4.08Zm7.13,3.75a1.72,1.72,0,0,1-.44-.08,1.33,1.33,0,0,1-.43-.17,1.51,1.51,0,0,1-.62-.81l-3.38-9h-.57q-.72,1.92-1.65,4.37t-1.69,4.43a2.36,2.36,0,0,1-.31.6,1.72,1.72,0,0,1-.43.42,1.52,1.52,0,0,1-.46.19,4.2,4.2,0,0,1-.47.08v.53h3.82v-.53a3.56,3.56,0,0,1-1-.19c-.29-.11-.44-.26-.44-.46a2.23,2.23,0,0,1,0-.32,3.53,3.53,0,0,1,.13-.52c.07-.21.14-.44.23-.7s.19-.56.32-.9h3.57l.84,2.34a.69.69,0,0,1,.05.17,1,1,0,0,1,0,.16c0,.11-.12.2-.37.27a4.1,4.1,0,0,1-.93.15v.53h4.21Z" transform="translate(-202.96 -376.16)"/><path class="cls-3" d="M336,435.56a1.26,1.26,0,0,1-.17.67.58.58,0,0,1-.53.29.78.78,0,0,1-.59-.22.66.66,0,0,1-.21-.47,1.23,1.23,0,0,1,0-.29,2.16,2.16,0,0,1,.05-.27,1.4,1.4,0,0,0-.76.28,2.31,2.31,0,0,0-.75.8v4.24a.87.87,0,0,0,.09.42.56.56,0,0,0,.3.24,1.65,1.65,0,0,0,.45.11c.18,0,.34,0,.48.05v.5H330.8v-.5l.33,0a1.16,1.16,0,0,0,.29-.05.54.54,0,0,0,.29-.24.89.89,0,0,0,.09-.43v-4.47a1,1,0,0,0-.1-.45.82.82,0,0,0-.28-.35.85.85,0,0,0-.31-.13,2.28,2.28,0,0,0-.39-.06v-.49l2.3-.16.09.1v1h0a3.24,3.24,0,0,1,1-.9,1.89,1.89,0,0,1,1-.31.91.91,0,0,1,.71.3A1.17,1.17,0,0,1,336,435.56Z" transform="translate(-202.96 -376.16)"/><path class="cls-3" d="M341.15,441.59c-.31.13-.6.24-.88.33a3.24,3.24,0,0,1-1,.14,1.47,1.47,0,0,1-1.24-.47,2,2,0,0,1-.37-1.3v-4.92h-1.28v-.71h1.31v-2.27H339v2.27h2v.71h-2v4.08c0,.3,0,.56,0,.76a1.71,1.71,0,0,0,.16.54.71.71,0,0,0,.34.32,1.29,1.29,0,0,0,.61.12l.52,0a2.43,2.43,0,0,0,.49-.08Z" transform="translate(-202.96 -376.16)"/><path class="cls-3" d="M349.47,433.22a3.93,3.93,0,0,1,2.4.76A2.86,2.86,0,0,1,353,436.1h-1.46a2.37,2.37,0,0,0-.67-1.2,1.92,1.92,0,0,0-1.4-.48,2.08,2.08,0,0,0-1.93,1,4.37,4.37,0,0,0,0,4.42,2.07,2.07,0,0,0,1.93,1,1.84,1.84,0,0,0,1.51-.64,2.76,2.76,0,0,0,.6-1.56H353a3.58,3.58,0,0,1-1.06,2.46,3.39,3.39,0,0,1-2.48,1,3.57,3.57,0,0,1-2.93-1.31,5.12,5.12,0,0,1,0-6.21A3.59,3.59,0,0,1,349.47,433.22Z" transform="translate(-202.96 -376.16)"/><path class="cls-3" d="M353.74,437.63a4.81,4.81,0,0,1,1.05-3.11,3.94,3.94,0,0,1,5.85,0,5.12,5.12,0,0,1,0,6.21,3.92,3.92,0,0,1-5.85,0A4.77,4.77,0,0,1,353.74,437.63Zm6.5,0a4.18,4.18,0,0,0-.59-2.21,2.37,2.37,0,0,0-3.87,0,4.43,4.43,0,0,0,0,4.42,2.39,2.39,0,0,0,3.87,0A4.21,4.21,0,0,0,360.24,437.63Z" transform="translate(-202.96 -376.16)"/><path class="cls-3" d="M362.9,443.43v-1.59h1.61v1.59Z" transform="translate(-202.96 -376.16)"/><path class="cls-3" d="M366,442.37v-1.54h1.61v1.54a1.59,1.59,0,0,1-.44,1.15,2.26,2.26,0,0,1-1.12.57v-.72a1,1,0,0,0,.58-.36.94.94,0,0,0,.19-.64Z" transform="translate(-202.96 -376.16)"/><path class="cls-3" d="M369.22,441.84v-8.42h1.45v7.14h4.22v1.28Z" transform="translate(-202.96 -376.16)"/><path class="cls-3" d="M375.1,434.69v-1.27h6.73v1.27h-2.64v7.15h-1.45v-7.15Z" transform="translate(-202.96 -376.16)"/><path class="cls-3" d="M382.66,441.84v-8.42h3.44a3.15,3.15,0,0,1,2.78,1.23,5.52,5.52,0,0,1,0,6,3.13,3.13,0,0,1-2.78,1.24Zm1.45-7.22v6h1.42q1.73,0,2.25-.87a4.62,4.62,0,0,0,0-4.26,2.44,2.44,0,0,0-2.25-.88Z" transform="translate(-202.96 -376.16)"/><path class="cls-3" d="M391,443.43v-1.59h1.61v1.59Z" transform="translate(-202.96 -376.16)"/><text class="cls-4" transform="translate(0 13.24)">주방속의 예술감각</text></svg>